<?xml version="1.0" standalone="no"?>
<!DOCTYPE svg PUBLIC "-//W3C//DTD SVG 20010904//EN"
 "http://www.w3.org/TR/2001/REC-SVG-20010904/DTD/svg10.dtd">
<svg version="1.0" xmlns="http://www.w3.org/2000/svg"
 width="400.000000pt" height="400.000000pt" viewBox="0 0 400.000000 400.000000"
 preserveAspectRatio="xMidYMid meet">
<metadata>
Created by potrace 1.14, written by Peter Selinger 2001-2017
</metadata>
<g transform="translate(0.000000,400.000000) scale(0.100000,-0.100000)"
fill="#000000" stroke="none">
<path d="M520 1941 l0 -901 175 0 175 0 0 305 0 305 188 0 187 -1 146 -302
146 -302 191 -3 c106 -1 192 1 192 5 -1 5 -72 154 -159 333 l-158 324 56 36
c117 76 197 201 226 354 50 263 -33 526 -203 643 -34 23 -99 55 -145 70 l-82
27 -467 4 -468 3 0 -900z m865 568 c100 -25 167 -126 169 -254 2 -126 -40
-211 -127 -258 -40 -21 -56 -22 -299 -25 l-258 -3 0 275 0 276 236 0 c138 0
253 -5 279 -11z"/>
<path d="M2300 1940 l0 -900 403 0 c446 0 488 5 604 62 160 79 253 234 253
423 0 79 -20 167 -53 234 -32 65 -125 161 -196 201 -33 19 -60 37 -60 40 0 3
23 22 50 43 57 43 119 133 146 210 13 37 18 81 18 153 0 96 -2 103 -38 176
-43 88 -113 158 -199 200 -112 55 -140 58 -550 58 l-378 0 0 -900z m764 790
c208 -34 332 -214 282 -410 -19 -73 -70 -156 -122 -195 -19 -14 -60 -38 -92
-53 l-57 -27 -332 -3 -333 -3 0 350 0 351 298 0 c163 0 323 -4 356 -10z m48
-801 c121 -25 237 -118 295 -237 26 -52 28 -66 28 -172 0 -109 -2 -118 -29
-168 -35 -63 -87 -112 -155 -147 -102 -51 -138 -55 -503 -55 l-338 0 0 395 0
395 325 0 c199 0 345 -4 377 -11z"/>
</g>
</svg>
